<svg viewBox="509.768 29.089 331.46 356.026" width="331.46" height="356.026" fill="none" xmlns="http://www.w3.org/2000/svg">
  <path d="M 841.228 117.607 C 822.97 81.52 794.146 52.315 758.867 34.161 L 757.236 37.546 C 791.824 55.344 820.085 83.978 837.985 119.358 L 841.228 117.607 Z" fill="white" style=""></path>
  <path d="M 748.177 385.115 C 786.305 368.499 818.02 339.287 838.358 302.054 L 834.777 299.967 C 814.888 336.382 783.869 364.951 746.58 381.202 L 748.177 385.115 Z" fill="white" style=""></path>
  <path d="M 509.768 296.596 C 528.024 332.683 556.85 361.888 592.129 380.042 L 593.761 376.657 C 559.172 358.859 530.91 330.226 513.01 294.845 L 509.768 296.596 Z" fill="white" style=""></path>
  <path d="M 602.818 29.089 C 564.69 45.704 532.975 74.916 512.638 112.149 L 516.217 114.236 C 536.108 77.823 567.126 49.252 604.415 33.001 L 602.818 29.089 Z" fill="white" style=""></path>
</svg>