<svg width="24" height="25" viewBox="0 0 24 25" fill="none" xmlns="http://www.w3.org/2000/svg">
<path d="M12 2.72363C10.1087 2.72363 8.25991 3.28446 6.68736 4.3352C5.11482 5.38595 3.88917 6.8794 3.16541 8.62672C2.44164 10.374 2.25227 12.2967 2.62125 14.1517C2.99022 16.0066 3.90096 17.7105 5.2383 19.0478C6.57564 20.3852 8.27951 21.2959 10.1345 21.6649C11.9894 22.0339 13.9121 21.8445 15.6594 21.1207C17.4067 20.397 18.9002 19.1713 19.9509 17.5988C21.0017 16.0262 21.5625 14.1774 21.5625 12.2861C21.5575 9.75152 20.5485 7.32214 18.7562 5.5299C16.964 3.73765 14.5346 2.72859 12 2.72363ZM12 20.7236C10.3312 20.7236 8.69992 20.2288 7.31238 19.3017C5.92484 18.3745 4.84338 17.0568 4.20477 15.515C3.56616 13.9733 3.39907 12.2768 3.72463 10.6401C4.05019 9.00334 4.85379 7.49993 6.03379 6.31992C7.2138 5.13991 8.71722 4.33632 10.3539 4.01076C11.9906 3.68519 13.6871 3.85228 15.2289 4.4909C16.7706 5.12951 18.0884 6.21097 19.0155 7.59851C19.9427 8.98605 20.4375 10.6174 20.4375 12.2861C20.435 14.5231 19.5453 16.6678 17.9635 18.2496C16.3817 19.8314 14.237 20.7212 12 20.7236ZM13.3125 16.7861C13.3125 16.9353 13.2532 17.0784 13.1478 17.1839C13.0423 17.2894 12.8992 17.3486 12.75 17.3486H12C11.8508 17.3486 11.7077 17.2894 11.6023 17.1839C11.4968 17.0784 11.4375 16.9353 11.4375 16.7861V12.0986H11.25C11.1008 12.0986 10.9577 12.0394 10.8523 11.9339C10.7468 11.8284 10.6875 11.6853 10.6875 11.5361C10.6875 11.3869 10.7468 11.2439 10.8523 11.1384C10.9577 11.0329 11.1008 10.9736 11.25 10.9736H12C12.1492 10.9736 12.2923 11.0329 12.3978 11.1384C12.5032 11.2439 12.5625 11.3869 12.5625 11.5361V16.2236H12.75C12.8992 16.2236 13.0423 16.2829 13.1478 16.3884C13.2532 16.4939 13.3125 16.6369 13.3125 16.7861ZM10.875 8.16113C10.875 7.97571 10.93 7.79446 11.033 7.64029C11.136 7.48611 11.2824 7.36595 11.4537 7.295C11.625 7.22404 11.8135 7.20547 11.9954 7.24165C12.1773 7.27782 12.3443 7.36711 12.4754 7.49822C12.6065 7.62933 12.6958 7.79638 12.732 7.97824C12.7682 8.16009 12.7496 8.34859 12.6786 8.5199C12.6077 8.6912 12.4875 8.83762 12.3334 8.94064C12.1792 9.04365 11.9979 9.09863 11.8125 9.09863C11.5639 9.09863 11.3254 8.99986 11.1496 8.82405C10.9738 8.64823 10.875 8.40977 10.875 8.16113Z" fill="white"/>
</svg>
