<svg width="31" height="31" viewBox="0 0 31 31" fill="none" xmlns="http://www.w3.org/2000/svg">
<circle cx="15.8" cy="15.5" r="15" fill="#3777FF"/>
<path d="M23.4674 18.833C23.4668 21.4997 23.4668 21.4997 20.8008 21.4997C18.1341 21.4997 17.4674 19.4997 17.4674 17.4997C17.4674 17.2477 17.4554 16.8877 17.4501 16.4663L18.7988 17.2457L18.8001 17.4997C18.8001 19.3503 19.3441 20.1663 20.8001 20.1663C21.5601 20.1663 21.8734 20.1617 22.1088 20.141C22.1288 19.907 22.1334 19.593 22.1334 18.833C22.1334 16.6963 21.6648 14.811 20.9101 13.5663C20.3514 12.645 19.8348 12.3377 19.5554 12.431C19.3601 12.4963 19.1521 12.8643 19.0014 13.513L17.8081 12.8243C18.0541 12.0263 18.4628 11.3903 19.1334 11.1663C21.1334 10.4997 23.4688 13.833 23.4668 18.833H23.4674ZM14.4668 11.1663C15.1381 11.3903 15.5468 12.0263 15.7928 12.8243L14.5994 13.513C14.4488 12.8643 14.2401 12.4963 14.0454 12.431C13.7654 12.3377 13.2488 12.6443 12.6908 13.5657C11.9354 14.811 11.4668 16.6963 11.4668 18.833C11.4668 19.593 11.4714 19.9063 11.4921 20.141C11.7261 20.1617 12.0401 20.1663 12.8001 20.1663C14.2561 20.1663 14.8001 19.3503 14.8001 17.4997L14.8028 17.245L16.1514 16.4663C16.1448 16.8883 16.1334 17.2477 16.1334 17.4997C16.1334 19.4997 15.4668 21.4997 12.8001 21.4997C10.1334 21.4997 10.1334 21.4997 10.1334 18.833C10.1334 13.833 12.4668 10.4997 14.4668 11.1663ZM17.4668 8.83301V13.781L20.5974 15.589L19.9308 16.7437L16.8001 14.9363L13.6694 16.7437L13.0028 15.589L16.1334 13.781V8.83301H17.4668Z" fill="white"/>
</svg>
