<svg width="31" height="31" viewBox="0 0 31 31" fill="none" xmlns="http://www.w3.org/2000/svg">
<circle cx="15.8" cy="15.5" r="15" fill="#F25022"/>
<g clip-path="url(#clip0_289_21824)">
<path d="M22.3233 12.5804C22.4326 12.1968 22.4563 11.7939 22.3927 11.4001C22.3291 11.0063 22.1797 10.6313 21.9552 10.3017C21.7307 9.972 21.4365 9.69569 21.0934 9.49228C20.7503 9.28887 20.3666 9.16333 19.9697 9.12455C19.8104 8.66752 19.513 8.2713 19.1186 7.99074C18.7242 7.71019 18.2523 7.55917 17.7683 7.55859C17.1932 7.56054 16.6394 7.77653 16.2148 8.16447C15.7902 7.77653 15.2364 7.56054 14.6613 7.55859C13.6507 7.55859 12.7893 8.20409 12.4669 9.12377C12.0692 9.16159 11.6847 9.28645 11.3407 9.4895C10.9967 9.69255 10.7016 9.96882 10.4763 10.2987C10.251 10.6286 10.1011 11.004 10.0371 11.3983C9.9732 11.7926 9.99682 12.1962 10.1063 12.5804C9.60766 12.8457 9.19012 13.241 8.898 13.7245C8.60589 14.2079 8.45009 14.7614 8.44714 15.3262C8.44714 16.1613 8.7796 16.9466 9.35751 17.526C9.26909 17.8204 9.22408 18.126 9.22391 18.4333C9.22391 19.9534 10.3207 21.2219 11.7919 21.4891C12.0079 21.9664 12.3566 22.3715 12.7965 22.6561C13.2365 22.9407 13.749 23.0926 14.2729 23.0939C15.0333 23.0939 15.7208 22.7777 16.2148 22.2713C16.4669 22.5314 16.7687 22.7382 17.1023 22.8795C17.4359 23.0208 17.7944 23.0937 18.1567 23.0939C18.6797 23.0929 19.1914 22.9416 19.6307 22.6578C20.0701 22.3741 20.4185 21.97 20.6346 21.4938C21.068 21.4173 21.4802 21.2499 21.8442 21.0024C22.2081 20.7549 22.5153 20.4331 22.7457 20.0581C22.9761 19.6831 23.1243 19.2636 23.1805 18.8271C23.2368 18.3906 23.1998 17.9472 23.0721 17.526C23.3609 17.2371 23.5899 16.8942 23.7461 16.5167C23.9023 16.1393 23.9826 15.7347 23.9824 15.3262C23.9795 14.7614 23.8237 14.2079 23.5316 13.7245C23.2395 13.241 22.8219 12.8457 22.3233 12.5804ZM14.2729 21.5404C13.7206 21.5404 13.2398 21.1489 13.131 20.6098L12.9664 19.9868H12.331C11.4742 19.9868 10.7774 19.2901 10.7774 18.4333C10.7774 18.1599 10.8435 17.9035 10.974 17.6713L11.3282 17.0375L10.7192 16.6413C10.4992 16.4995 10.3182 16.3048 10.1927 16.0751C10.0672 15.8454 10.0012 15.588 10.0007 15.3262C10.0007 14.5673 10.5623 13.9094 11.3072 13.7945L12.6223 13.5925L11.7997 12.547C11.6532 12.3581 11.5682 12.1288 11.5563 11.8901C11.5444 11.6514 11.606 11.4148 11.733 11.2123C11.8599 11.0098 12.046 10.8511 12.266 10.7578C12.486 10.6645 12.7294 10.641 12.9633 10.6905L13.8845 10.8264V9.88889C13.8845 9.68288 13.9663 9.4853 14.112 9.33963C14.2577 9.19396 14.4553 9.11212 14.6613 9.11212C14.8673 9.11212 15.0648 9.19396 15.2105 9.33963C15.3562 9.4853 15.438 9.68288 15.438 9.88889V20.3752C15.438 21.0176 14.9153 21.5404 14.2729 21.5404ZM21.7104 16.6405L21.1014 17.0367L21.4556 17.6705C21.5861 17.9035 21.6521 18.1599 21.6521 18.4333C21.6521 19.2901 20.9554 19.9868 20.0598 19.9868H19.4244L19.2985 20.6098C19.2442 20.8725 19.101 21.1086 18.893 21.2781C18.6851 21.4476 18.425 21.5402 18.1567 21.5404C17.5143 21.5404 16.9916 21.0176 16.9916 20.3752V9.88889C16.9916 9.46011 17.3395 9.11212 17.7683 9.11212C18.1971 9.11212 18.5451 9.46011 18.5451 9.92773V10.8653L19.4663 10.6905C19.7002 10.641 19.9435 10.6645 20.1636 10.7578C20.3836 10.8511 20.5697 11.0098 20.6966 11.2123C20.8236 11.4148 20.8852 11.6514 20.8733 11.8901C20.8614 12.1288 20.7764 12.3581 20.6299 12.547L19.8073 13.5933L21.1224 13.7952C21.4863 13.8542 21.8174 14.0404 22.0567 14.3209C22.296 14.6013 22.4279 14.9576 22.4289 15.3262C22.4289 15.8568 22.1601 16.3477 21.7104 16.6405Z" fill="white"/>
</g>
<defs>
<clipPath id="clip0_289_21824">
<rect width="15.5357" height="15.5357" fill="white" transform="translate(8.30005 7.46387)"/>
</clipPath>
</defs>
</svg>
