<svg width="16" height="17" viewBox="0 0 16 17" fill="none" xmlns="http://www.w3.org/2000/svg">
<path d="M8.49219 1.5C9.17969 1.5 9.84115 1.59115 10.4766 1.77344C11.1172 1.95052 11.7161 2.20312 12.2734 2.53125C12.8307 2.85417 13.3359 3.24479 13.7891 3.70312C14.2474 4.15625 14.638 4.66146 14.9609 5.21875C15.2891 5.77604 15.5417 6.375 15.7188 7.01562C15.901 7.65104 15.9922 8.3125 15.9922 9C15.9922 9.6875 15.901 10.3516 15.7188 10.9922C15.5417 11.6276 15.2891 12.224 14.9609 12.7812C14.638 13.3385 14.2474 13.8464 13.7891 14.3047C13.3359 14.7578 12.8307 15.1484 12.2734 15.4766C11.7161 15.7995 11.1172 16.0521 10.4766 16.2344C9.84115 16.4115 9.17969 16.5 8.49219 16.5C7.80469 16.5 7.14063 16.4115 6.5 16.2344C5.86458 16.0521 5.26823 15.7995 4.71094 15.4766C4.15365 15.1484 3.64583 14.7578 3.1875 14.3047C2.73438 13.8464 2.34375 13.3385 2.01563 12.7812C1.69271 12.224 1.4401 11.6276 1.25781 10.9922C1.08073 10.3516 0.992188 9.6875 0.992188 9C0.992188 8.3125 1.08073 7.65104 1.25781 7.01562C1.4401 6.375 1.69271 5.77604 2.01563 5.21875C2.34375 4.66146 2.73438 4.15625 3.1875 3.70312C3.64583 3.24479 4.15365 2.85417 4.71094 2.53125C5.26823 2.20312 5.86458 1.95052 6.5 1.77344C7.14062 1.59115 7.80469 1.5 8.49219 1.5ZM8.49219 2.5C7.89323 2.5 7.3151 2.57812 6.75781 2.73437C6.20573 2.88542 5.6875 3.10417 5.20312 3.39062C4.72396 3.67187 4.28646 4.01042 3.89063 4.40625C3.5 4.79688 3.16146 5.23438 2.875 5.71875C2.59375 6.19792 2.375 6.71615 2.21875 7.27344C2.06771 7.82552 1.99219 8.40104 1.99219 9C1.99219 9.59896 2.06771 10.1771 2.21875 10.7344C2.375 11.2865 2.59375 11.8047 2.875 12.2891C3.16146 12.7682 3.5 13.2057 3.89063 13.6016C4.28646 13.9922 4.72396 14.3307 5.20313 14.6172C5.6875 14.8984 6.20573 15.1172 6.75781 15.2734C7.3151 15.4245 7.89323 15.5 8.49219 15.5C9.09115 15.5 9.66667 15.4245 10.2188 15.2734C10.776 15.1172 11.2943 14.8984 11.7734 14.6172C12.2578 14.3307 12.6953 13.9922 13.0859 13.6016C13.4818 13.2057 13.8203 12.7682 14.1016 12.2891C14.388 11.8047 14.6068 11.2865 14.7578 10.7344C14.9141 10.1771 14.9922 9.59896 14.9922 9C14.9922 8.40104 14.9141 7.82552 14.7578 7.27344C14.6068 6.71615 14.388 6.19792 14.1016 5.71875C13.8203 5.23437 13.4818 4.79687 13.0859 4.40625C12.6953 4.01042 12.2578 3.67187 11.7734 3.39062C11.2943 3.10417 10.776 2.88542 10.2188 2.73437C9.66667 2.57812 9.09115 2.5 8.49219 2.5ZM12.8438 7.35156L8.10938 12.125L5.14063 9.15625L5.84375 8.44531L8.10938 10.7109L12.1406 6.64844L12.8438 7.35156Z" fill="#92C353"/>
</svg>
