<svg width="17" height="16" viewBox="0 0 17 16" fill="none" xmlns="http://www.w3.org/2000/svg">
<path d="M8.5 0C12.9183 0 16.5 3.58172 16.5 8C16.5 12.4183 12.9183 16 8.5 16C4.08172 16 0.5 12.4183 0.5 8C0.5 3.58172 4.08172 0 8.5 0ZM8.5 10.5C8.08579 10.5 7.75 10.8358 7.75 11.25C7.75 11.6642 8.08579 12 8.5 12C8.91421 12 9.25 11.6642 9.25 11.25C9.25 10.8358 8.91421 10.5 8.5 10.5ZM8.5 4C8.25454 4 8.05039 4.17688 8.00806 4.41012L8 4.5V9L8.00806 9.08988C8.05039 9.32312 8.25454 9.5 8.5 9.5C8.74546 9.5 8.94961 9.32312 8.99194 9.08988L9 9V4.5L8.99194 4.41012C8.94961 4.17688 8.74546 4 8.5 4Z" fill="#C4314B"/>
</svg>
